<svg xmlns="http://www.w3.org/2000/svg" viewBox="0 0 32 32" shape-rendering="crispEdges" width="512" height="512"><rect x="15" y="0" width="1" height="1" fill="#d6c9b8"/><rect x="12" y="1" width="1" height="1" fill="#d6c9b8"/><rect x="13" y="1" width="1" height="1" fill="#fbf4ec"/><rect x="14" y="1" width="3" height="1" fill="#d6c9b8"/><rect x="17" y="1" width="1" height="1" fill="#fbf4ec"/><rect x="18" y="1" width="1" height="1" fill="#d6c9b8"/><rect x="10" y="2" width="1" height="1" fill="#fbf4ec"/><rect x="11" y="2" width="4" height="1" fill="#d6c9b8"/><rect x="15" y="2" width="1" height="1" fill="#77bb44"/><rect x="16" y="2" width="4" height="1" fill="#d6c9b8"/><rect x="20" y="2" width="1" height="1" fill="#fbf4ec"/><rect x="9" y="3" width="1" height="1" fill="#fbf4ec"/><rect x="10" y="3" width="2" height="1" fill="#d6c9b8"/><rect x="12" y="3" width="1" height="1" fill="#77bb44"/><rect x="13" y="3" width="2" height="1" fill="#d6c9b8"/><rect x="15" y="3" width="1" height="1" fill="#77bb44"/><rect x="16" y="3" width="2" height="1" fill="#d6c9b8"/><rect x="18" y="3" width="1" height="1" fill="#77bb44"/><rect x="19" y="3" width="2" height="1" fill="#d6c9b8"/><rect x="21" y="3" width="1" height="1" fill="#fbf4ec"/><rect x="8" y="4" width="1" height="1" fill="#fbf4ec"/><rect x="9" y="4" width="2" height="1" fill="#d6c9b8"/><rect x="11" y="4" width="1" height="1" fill="#77bb44"/><rect x="12" y="4" width="1" height="1" fill="#d6c9b8"/><rect x="13" y="4" width="1" height="1" fill="#77bb44"/><rect x="14" y="4" width="1" height="1" fill="#d6c9b8"/><rect x="15" y="4" width="1" height="1" fill="#77bb44"/><rect x="16" y="4" width="1" height="1" fill="#d6c9b8"/><rect x="17" y="4" width="1" height="1" fill="#77bb44"/><rect x="18" y="4" width="1" height="1" fill="#d6c9b8"/><rect x="19" y="4" width="1" height="1" fill="#77bb44"/><rect x="20" y="4" width="2" height="1" fill="#d6c9b8"/><rect x="22" y="4" width="1" height="1" fill="#fbf4ec"/><rect x="7" y="5" width="1" height="1" fill="#fbf4ec"/><rect x="8" y="5" width="3" height="1" fill="#d6c9b8"/><rect x="11" y="5" width="1" height="1" fill="#77bb44"/><rect x="12" y="5" width="1" height="1" fill="#d6c9b8"/><rect x="13" y="5" width="1" height="1" fill="#77bb44"/><rect x="14" y="5" width="1" height="1" fill="#d6c9b8"/><rect x="15" y="5" width="1" height="1" fill="#77bb44"/><rect x="16" y="5" width="1" height="1" fill="#d6c9b8"/><rect x="17" y="5" width="1" height="1" fill="#77bb44"/><rect x="18" y="5" width="1" height="1" fill="#d6c9b8"/><rect x="19" y="5" width="1" height="1" fill="#77bb44"/><rect x="20" y="5" width="3" height="1" fill="#d6c9b8"/><rect x="23" y="5" width="1" height="1" fill="#fbf4ec"/><rect x="6" y="6" width="4" height="1" fill="#d6c9b8"/><rect x="10" y="6" width="1" height="1" fill="#b98a2f"/><rect x="11" y="6" width="3" height="1" fill="#946d24"/><rect x="14" y="6" width="3" height="1" fill="#107c10"/><rect x="17" y="6" width="3" height="1" fill="#946d24"/><rect x="20" y="6" width="1" height="1" fill="#b98a2f"/><rect x="21" y="6" width="4" height="1" fill="#d6c9b8"/><rect x="5" y="7" width="3" height="1" fill="#d6c9b8"/><rect x="8" y="7" width="1" height="1" fill="#b98a2f"/><rect x="9" y="7" width="13" height="1" fill="#946d24"/><rect x="22" y="7" width="1" height="1" fill="#b98a2f"/><rect x="23" y="7" width="3" height="1" fill="#d6c9b8"/><rect x="4" y="8" width="2" height="1" fill="#d6c9b8"/><rect x="6" y="8" width="1" height="1" fill="#b98a2f"/><rect x="7" y="8" width="2" height="1" fill="#0a0c0a"/><rect x="9" y="8" width="1" height="1" fill="#b98a2f"/><rect x="10" y="8" width="2" height="1" fill="#0a0c0a"/><rect x="12" y="8" width="1" height="1" fill="#b98a2f"/><rect x="13" y="8" width="2" height="1" fill="#0a0c0a"/><rect x="15" y="8" width="1" height="1" fill="#b98a2f"/><rect x="16" y="8" width="2" height="1" fill="#0a0c0a"/><rect x="18" y="8" width="1" height="1" fill="#b98a2f"/><rect x="19" y="8" width="2" height="1" fill="#0a0c0a"/><rect x="21" y="8" width="1" height="1" fill="#b98a2f"/><rect x="22" y="8" width="2" height="1" fill="#0a0c0a"/><rect x="24" y="8" width="1" height="1" fill="#b98a2f"/><rect x="25" y="8" width="2" height="1" fill="#d6c9b8"/><rect x="4" y="9" width="2" height="1" fill="#d6c9b8"/><rect x="6" y="9" width="1" height="1" fill="#b98a2f"/><rect x="7" y="9" width="1" height="1" fill="#946d24"/><rect x="8" y="9" width="17" height="1" fill="#b98a2f"/><rect x="25" y="9" width="2" height="1" fill="#d6c9b8"/><rect x="3" y="10" width="2" height="1" fill="#d6c9b8"/><rect x="5" y="10" width="1" height="1" fill="#b98a2f"/><rect x="6" y="10" width="1" height="1" fill="#946d24"/><rect x="7" y="10" width="3" height="1" fill="#b98a2f"/><rect x="10" y="10" width="1" height="1" fill="#0a0c0a"/><rect x="11" y="10" width="9" height="1" fill="#b98a2f"/><rect x="20" y="10" width="1" height="1" fill="#0a0c0a"/><rect x="21" y="10" width="5" height="1" fill="#b98a2f"/><rect x="26" y="10" width="2" height="1" fill="#d6c9b8"/><rect x="4" y="11" width="1" height="1" fill="#616658"/><rect x="5" y="11" width="1" height="1" fill="#b98a2f"/><rect x="6" y="11" width="1" height="1" fill="#946d24"/><rect x="7" y="11" width="1" height="1" fill="#b98a2f"/><rect x="8" y="11" width="1" height="1" fill="#0a0c0a"/><rect x="9" y="11" width="3" height="1" fill="#77bb44"/><rect x="12" y="11" width="1" height="1" fill="#0a0c0a"/><rect x="13" y="11" width="5" height="1" fill="#b98a2f"/><rect x="18" y="11" width="1" height="1" fill="#0a0c0a"/><rect x="19" y="11" width="3" height="1" fill="#77bb44"/><rect x="22" y="11" width="1" height="1" fill="#0a0c0a"/><rect x="23" y="11" width="3" height="1" fill="#b98a2f"/><rect x="26" y="11" width="1" height="1" fill="#616658"/><rect x="4" y="12" width="1" height="1" fill="#616658"/><rect x="5" y="12" width="1" height="1" fill="#946d24"/><rect x="6" y="12" width="1" height="1" fill="#b98a2f"/><rect x="7" y="12" width="1" height="1" fill="#0a0c0a"/><rect x="8" y="12" width="1" height="1" fill="#fbf4ec"/><rect x="9" y="12" width="4" height="1" fill="#77bb44"/><rect x="13" y="12" width="1" height="1" fill="#0a0c0a"/><rect x="14" y="12" width="3" height="1" fill="#b98a2f"/><rect x="17" y="12" width="1" height="1" fill="#0a0c0a"/><rect x="18" y="12" width="1" height="1" fill="#fbf4ec"/><rect x="19" y="12" width="4" height="1" fill="#77bb44"/><rect x="23" y="12" width="1" height="1" fill="#0a0c0a"/><rect x="24" y="12" width="2" height="1" fill="#b98a2f"/><rect x="26" y="12" width="1" height="1" fill="#616658"/><rect x="3" y="13" width="1" height="1" fill="#b98a2f"/><rect x="4" y="13" width="1" height="1" fill="#616658"/><rect x="5" y="13" width="1" height="1" fill="#946d24"/><rect x="6" y="13" width="1" height="1" fill="#b98a2f"/><rect x="7" y="13" width="7" height="1" fill="#77bb44"/><rect x="14" y="13" width="3" height="1" fill="#b98a2f"/><rect x="17" y="13" width="7" height="1" fill="#77bb44"/><rect x="24" y="13" width="2" height="1" fill="#b98a2f"/><rect x="26" y="13" width="1" height="1" fill="#616658"/><rect x="27" y="13" width="1" height="1" fill="#b98a2f"/><rect x="3" y="14" width="1" height="1" fill="#b98a2f"/><rect x="4" y="14" width="1" height="1" fill="#616658"/><rect x="5" y="14" width="1" height="1" fill="#946d24"/><rect x="6" y="14" width="1" height="1" fill="#0a0c0a"/><rect x="7" y="14" width="1" height="1" fill="#77bb44"/><rect x="8" y="14" width="2" height="1" fill="#0a0c0a"/><rect x="10" y="14" width="4" height="1" fill="#77bb44"/><rect x="14" y="14" width="1" height="1" fill="#0a0c0a"/><rect x="15" y="14" width="1" height="1" fill="#b98a2f"/><rect x="16" y="14" width="1" height="1" fill="#0a0c0a"/><rect x="17" y="14" width="4" height="1" fill="#77bb44"/><rect x="21" y="14" width="2" height="1" fill="#0a0c0a"/><rect x="23" y="14" width="1" height="1" fill="#77bb44"/><rect x="24" y="14" width="1" height="1" fill="#0a0c0a"/><rect x="25" y="14" width="1" height="1" fill="#b98a2f"/><rect x="26" y="14" width="1" height="1" fill="#616658"/><rect x="27" y="14" width="1" height="1" fill="#b98a2f"/><rect x="3" y="15" width="1" height="1" fill="#b98a2f"/><rect x="4" y="15" width="1" height="1" fill="#616658"/><rect x="5" y="15" width="1" height="1" fill="#946d24"/><rect x="6" y="15" width="1" height="1" fill="#b98a2f"/><rect x="7" y="15" width="1" height="1" fill="#77bb44"/><rect x="8" y="15" width="2" height="1" fill="#0a0c0a"/><rect x="10" y="15" width="4" height="1" fill="#77bb44"/><rect x="14" y="15" width="3" height="1" fill="#b98a2f"/><rect x="17" y="15" width="4" height="1" fill="#77bb44"/><rect x="21" y="15" width="2" height="1" fill="#0a0c0a"/><rect x="23" y="15" width="1" height="1" fill="#77bb44"/><rect x="24" y="15" width="2" height="1" fill="#b98a2f"/><rect x="26" y="15" width="1" height="1" fill="#616658"/><rect x="27" y="15" width="1" height="1" fill="#b98a2f"/><rect x="4" y="16" width="1" height="1" fill="#616658"/><rect x="5" y="16" width="1" height="1" fill="#946d24"/><rect x="6" y="16" width="1" height="1" fill="#b98a2f"/><rect x="7" y="16" width="1" height="1" fill="#0a0c0a"/><rect x="8" y="16" width="5" height="1" fill="#77bb44"/><rect x="13" y="16" width="1" height="1" fill="#0a0c0a"/><rect x="14" y="16" width="3" height="1" fill="#b98a2f"/><rect x="17" y="16" width="1" height="1" fill="#0a0c0a"/><rect x="18" y="16" width="5" height="1" fill="#77bb44"/><rect x="23" y="16" width="1" height="1" fill="#0a0c0a"/><rect x="24" y="16" width="2" height="1" fill="#b98a2f"/><rect x="26" y="16" width="1" height="1" fill="#616658"/><rect x="4" y="17" width="1" height="1" fill="#616658"/><rect x="5" y="17" width="1" height="1" fill="#946d24"/><rect x="6" y="17" width="2" height="1" fill="#b98a2f"/><rect x="8" y="17" width="1" height="1" fill="#0a0c0a"/><rect x="9" y="17" width="3" height="1" fill="#77bb44"/><rect x="12" y="17" width="1" height="1" fill="#0a0c0a"/><rect x="13" y="17" width="5" height="1" fill="#b98a2f"/><rect x="18" y="17" width="1" height="1" fill="#0a0c0a"/><rect x="19" y="17" width="3" height="1" fill="#77bb44"/><rect x="22" y="17" width="1" height="1" fill="#0a0c0a"/><rect x="23" y="17" width="3" height="1" fill="#b98a2f"/><rect x="26" y="17" width="1" height="1" fill="#616658"/><rect x="1" y="18" width="3" height="1" fill="#d6c9b8"/><rect x="4" y="18" width="1" height="1" fill="#b98a2f"/><rect x="5" y="18" width="1" height="1" fill="#946d24"/><rect x="6" y="18" width="4" height="1" fill="#b98a2f"/><rect x="10" y="18" width="1" height="1" fill="#0a0c0a"/><rect x="11" y="18" width="9" height="1" fill="#b98a2f"/><rect x="20" y="18" width="1" height="1" fill="#0a0c0a"/><rect x="21" y="18" width="6" height="1" fill="#b98a2f"/><rect x="27" y="18" width="3" height="1" fill="#d6c9b8"/><rect x="0" y="19" width="2" height="1" fill="#d6c9b8"/><rect x="2" y="19" width="4" height="1" fill="#b98a2f"/><rect x="6" y="19" width="1" height="1" fill="#946d24"/><rect x="7" y="19" width="4" height="1" fill="#b98a2f"/><rect x="11" y="19" width="9" height="1" fill="#0a0c0a"/><rect x="20" y="19" width="9" height="1" fill="#b98a2f"/><rect x="29" y="19" width="2" height="1" fill="#d6c9b8"/><rect x="0" y="20" width="2" height="1" fill="#d6c9b8"/><rect x="2" y="20" width="4" height="1" fill="#b98a2f"/><rect x="6" y="20" width="1" height="1" fill="#946d24"/><rect x="7" y="20" width="8" height="1" fill="#b98a2f"/><rect x="15" y="20" width="1" height="1" fill="#0a0c0a"/><rect x="16" y="20" width="13" height="1" fill="#b98a2f"/><rect x="29" y="20" width="2" height="1" fill="#d6c9b8"/><rect x="1" y="21" width="2" height="1" fill="#d6c9b8"/><rect x="3" y="21" width="4" height="1" fill="#b98a2f"/><rect x="7" y="21" width="1" height="1" fill="#946d24"/><rect x="8" y="21" width="6" height="1" fill="#b98a2f"/><rect x="14" y="21" width="1" height="1" fill="#0a0c0a"/><rect x="15" y="21" width="1" height="1" fill="#b98a2f"/><rect x="16" y="21" width="1" height="1" fill="#0a0c0a"/><rect x="17" y="21" width="11" height="1" fill="#b98a2f"/><rect x="28" y="21" width="2" height="1" fill="#d6c9b8"/><rect x="2" y="22" width="3" height="1" fill="#d6c9b8"/><rect x="5" y="22" width="8" height="1" fill="#b98a2f"/><rect x="13" y="22" width="1" height="1" fill="#0a0c0a"/><rect x="14" y="22" width="1" height="1" fill="#b98a2f"/><rect x="15" y="22" width="1" height="1" fill="#1e4a22"/><rect x="16" y="22" width="1" height="1" fill="#b98a2f"/><rect x="17" y="22" width="1" height="1" fill="#0a0c0a"/><rect x="18" y="22" width="8" height="1" fill="#b98a2f"/><rect x="26" y="22" width="3" height="1" fill="#d6c9b8"/><rect x="3" y="23" width="4" height="1" fill="#d6c9b8"/><rect x="7" y="23" width="5" height="1" fill="#b98a2f"/><rect x="12" y="23" width="1" height="1" fill="#0a0c0a"/><rect x="13" y="23" width="1" height="1" fill="#b98a2f"/><rect x="14" y="23" width="1" height="1" fill="#1e4a22"/><rect x="15" y="23" width="1" height="1" fill="#b98a2f"/><rect x="16" y="23" width="1" height="1" fill="#1e4a22"/><rect x="17" y="23" width="1" height="1" fill="#b98a2f"/><rect x="18" y="23" width="1" height="1" fill="#0a0c0a"/><rect x="19" y="23" width="5" height="1" fill="#b98a2f"/><rect x="24" y="23" width="4" height="1" fill="#d6c9b8"/><rect x="5" y="24" width="2" height="1" fill="#d6c9b8"/><rect x="7" y="24" width="6" height="1" fill="#b98a2f"/><rect x="13" y="24" width="1" height="1" fill="#0a0c0a"/><rect x="14" y="24" width="1" height="1" fill="#b98a2f"/><rect x="15" y="24" width="1" height="1" fill="#1e4a22"/><rect x="16" y="24" width="1" height="1" fill="#b98a2f"/><rect x="17" y="24" width="1" height="1" fill="#0a0c0a"/><rect x="18" y="24" width="6" height="1" fill="#b98a2f"/><rect x="24" y="24" width="2" height="1" fill="#d6c9b8"/><rect x="5" y="25" width="2" height="1" fill="#d6c9b8"/><rect x="7" y="25" width="7" height="1" fill="#b98a2f"/><rect x="14" y="25" width="1" height="1" fill="#0a0c0a"/><rect x="15" y="25" width="1" height="1" fill="#b98a2f"/><rect x="16" y="25" width="1" height="1" fill="#0a0c0a"/><rect x="17" y="25" width="7" height="1" fill="#b98a2f"/><rect x="24" y="25" width="2" height="1" fill="#d6c9b8"/><rect x="5" y="26" width="2" height="1" fill="#d6c9b8"/><rect x="7" y="26" width="8" height="1" fill="#b98a2f"/><rect x="15" y="26" width="1" height="1" fill="#0a0c0a"/><rect x="16" y="26" width="8" height="1" fill="#b98a2f"/><rect x="24" y="26" width="2" height="1" fill="#d6c9b8"/><rect x="5" y="27" width="2" height="1" fill="#d6c9b8"/><rect x="7" y="27" width="6" height="1" fill="#b98a2f"/><rect x="13" y="27" width="5" height="1" fill="#d6c9b8"/><rect x="18" y="27" width="6" height="1" fill="#b98a2f"/><rect x="24" y="27" width="2" height="1" fill="#d6c9b8"/><rect x="5" y="28" width="2" height="1" fill="#d6c9b8"/><rect x="7" y="28" width="6" height="1" fill="#b98a2f"/><rect x="13" y="28" width="5" height="1" fill="#d6c9b8"/><rect x="18" y="28" width="6" height="1" fill="#b98a2f"/><rect x="24" y="28" width="2" height="1" fill="#d6c9b8"/><rect x="6" y="29" width="8" height="1" fill="#d6c9b8"/><rect x="17" y="29" width="8" height="1" fill="#d6c9b8"/><rect x="7" y="30" width="6" height="1" fill="#d6c9b8"/><rect x="18" y="30" width="6" height="1" fill="#d6c9b8"/></svg>